<mxfile host="Electron" agent="Mozilla/5.0 (Windows NT 10.0; Win64; x64) AppleWebKit/537.36 (KHTML, like Gecko) draw.io/27.0.9 Chrome/134.0.6998.205 Electron/35.4.0 Safari/537.36" version="27.0.9">
  <diagram name="Page-1" id="tBfEKJPNknVhTk-OX6iD">
    <mxGraphModel dx="1533" dy="489" grid="1" gridSize="10" guides="1" tooltips="1" connect="1" arrows="1" fold="1" page="1" pageScale="1" pageWidth="850" pageHeight="1100" math="0" shadow="0">
      <root>
        <mxCell id="0" />
        <mxCell id="1" parent="0" />
        <mxCell id="GzUKn0U8WQ_5wW52G-VL-1" value="&lt;font style=&quot;font-size: 18px;&quot;&gt;&lt;b&gt;&lt;u&gt;High Level Architecture&amp;nbsp;&lt;/u&gt;&lt;/b&gt;&lt;/font&gt;&lt;div&gt;&lt;br&gt;&lt;/div&gt;" style="text;html=1;align=center;verticalAlign=middle;resizable=0;points=[];autosize=1;strokeColor=none;fillColor=none;" vertex="1" parent="1">
          <mxGeometry x="5" y="60" width="230" height="50" as="geometry" />
        </mxCell>
        <mxCell id="GzUKn0U8WQ_5wW52G-VL-2" value="" style="rounded=0;whiteSpace=wrap;html=1;fillColor=none;strokeWidth=1;dashed=1;" vertex="1" parent="1">
          <mxGeometry x="-17.5" y="160" width="140" height="420" as="geometry" />
        </mxCell>
        <mxCell id="GzUKn0U8WQ_5wW52G-VL-4" value="&lt;font style=&quot;font-size: 24px;&quot;&gt;Sources&lt;/font&gt;&lt;div&gt;&lt;br&gt;&lt;/div&gt;" style="text;html=1;align=center;verticalAlign=middle;whiteSpace=wrap;rounded=0;" vertex="1" parent="1">
          <mxGeometry x="25" y="140" width="60" height="30" as="geometry" />
        </mxCell>
        <mxCell id="GzUKn0U8WQ_5wW52G-VL-5" value="" style="rounded=0;whiteSpace=wrap;html=1;fillColor=none;strokeWidth=1;dashed=1;gradientColor=#b3b3b3;strokeColor=#666666;" vertex="1" parent="1">
          <mxGeometry x="200" y="160" width="520" height="420" as="geometry" />
        </mxCell>
        <mxCell id="GzUKn0U8WQ_5wW52G-VL-6" value="&lt;div&gt;&lt;span style=&quot;font-size: 24px;&quot;&gt;Data Ware house&lt;/span&gt;&lt;/div&gt;" style="text;html=1;align=center;verticalAlign=middle;whiteSpace=wrap;rounded=0;" vertex="1" parent="1">
          <mxGeometry x="280" y="130" width="260" height="30" as="geometry" />
        </mxCell>
        <mxCell id="GzUKn0U8WQ_5wW52G-VL-7" value="" style="rounded=0;whiteSpace=wrap;html=1;fillColor=none;strokeWidth=1;dashed=1;" vertex="1" parent="1">
          <mxGeometry x="810" y="160" width="140" height="420" as="geometry" />
        </mxCell>
        <mxCell id="GzUKn0U8WQ_5wW52G-VL-8" value="&lt;div&gt;&lt;span style=&quot;font-size: 24px;&quot;&gt;Consume&lt;/span&gt;&lt;/div&gt;" style="text;html=1;align=center;verticalAlign=middle;whiteSpace=wrap;rounded=0;" vertex="1" parent="1">
          <mxGeometry x="850" y="130" width="60" height="30" as="geometry" />
        </mxCell>
        <mxCell id="GzUKn0U8WQ_5wW52G-VL-9" value="&lt;b&gt;Bronze Layer&lt;/b&gt;" style="text;html=1;align=center;verticalAlign=middle;whiteSpace=wrap;rounded=0;fillColor=#f0a30a;strokeColor=#BD7000;fontColor=#000000;" vertex="1" parent="1">
          <mxGeometry x="210" y="170" width="100" height="20" as="geometry" />
        </mxCell>
        <mxCell id="GzUKn0U8WQ_5wW52G-VL-11" value="&lt;b&gt;Silver Layer&lt;/b&gt;" style="text;html=1;align=center;verticalAlign=middle;whiteSpace=wrap;rounded=0;fillColor=light-dark(#f5f5f5, #0f0f0f);strokeColor=#666666;gradientColor=#b3b3b3;" vertex="1" parent="1">
          <mxGeometry x="400" y="170" width="100" height="20" as="geometry" />
        </mxCell>
        <mxCell id="GzUKn0U8WQ_5wW52G-VL-12" value="" style="text;html=1;align=center;verticalAlign=middle;whiteSpace=wrap;rounded=0;fillColor=none;strokeColor=#666666;gradientColor=#b3b3b3;" vertex="1" parent="1">
          <mxGeometry x="400" y="200" width="100" height="370" as="geometry" />
        </mxCell>
        <mxCell id="GzUKn0U8WQ_5wW52G-VL-13" value="&lt;b&gt;Gold Layer&lt;/b&gt;" style="text;html=1;align=center;verticalAlign=middle;whiteSpace=wrap;rounded=0;fillColor=#e3c800;strokeColor=#B09500;fontColor=#000000;" vertex="1" parent="1">
          <mxGeometry x="580" y="170" width="100" height="20" as="geometry" />
        </mxCell>
        <mxCell id="GzUKn0U8WQ_5wW52G-VL-41" value="" style="edgeStyle=orthogonalEdgeStyle;rounded=0;orthogonalLoop=1;jettySize=auto;html=1;exitX=0.99;exitY=0.441;exitDx=0;exitDy=0;exitPerimeter=0;" edge="1" parent="1" source="GzUKn0U8WQ_5wW52G-VL-14" target="GzUKn0U8WQ_5wW52G-VL-7">
          <mxGeometry relative="1" as="geometry">
            <Array as="points">
              <mxPoint x="780" y="315" />
              <mxPoint x="780" y="315" />
            </Array>
          </mxGeometry>
        </mxCell>
        <mxCell id="GzUKn0U8WQ_5wW52G-VL-14" value="Gold Layer" style="text;html=1;align=center;verticalAlign=middle;whiteSpace=wrap;rounded=0;fillColor=none;strokeColor=#B09500;fontColor=#000000;" vertex="1" parent="1">
          <mxGeometry x="580" y="200" width="100" height="370" as="geometry" />
        </mxCell>
        <mxCell id="GzUKn0U8WQ_5wW52G-VL-15" value="" style="image;aspect=fixed;html=1;points=[];align=center;fontSize=12;image=img/lib/azure2/general/Folder_Blank.svg;" vertex="1" parent="1">
          <mxGeometry x="37.5" y="280" width="30" height="24.35" as="geometry" />
        </mxCell>
        <mxCell id="GzUKn0U8WQ_5wW52G-VL-19" value="" style="image;aspect=fixed;html=1;points=[];align=center;fontSize=12;image=img/lib/azure2/general/Folder_Blank.svg;" vertex="1" parent="1">
          <mxGeometry x="42.5" y="347.06" width="30" height="24.35" as="geometry" />
        </mxCell>
        <mxCell id="GzUKn0U8WQ_5wW52G-VL-20" value="" style="image;aspect=fixed;html=1;points=[];align=center;fontSize=12;image=img/lib/azure2/general/File.svg;" vertex="1" parent="1">
          <mxGeometry x="60" y="360.76" width="15" height="18.48" as="geometry" />
        </mxCell>
        <mxCell id="GzUKn0U8WQ_5wW52G-VL-21" value="&lt;span style=&quot;font-size: 10px;&quot;&gt;&lt;b&gt;ERP&lt;/b&gt;&lt;/span&gt;" style="text;html=1;align=center;verticalAlign=middle;whiteSpace=wrap;rounded=0;" vertex="1" parent="1">
          <mxGeometry x="27.5" y="368.48" width="60" height="30" as="geometry" />
        </mxCell>
        <mxCell id="GzUKn0U8WQ_5wW52G-VL-25" value="" style="endArrow=none;html=1;rounded=0;" edge="1" parent="1">
          <mxGeometry width="50" height="50" relative="1" as="geometry">
            <mxPoint x="25" y="399.35" as="sourcePoint" />
            <mxPoint x="105" y="399.35" as="targetPoint" />
            <Array as="points">
              <mxPoint x="25" y="399.35" />
              <mxPoint x="85" y="399.35" />
              <mxPoint x="75" y="399.35" />
            </Array>
          </mxGeometry>
        </mxCell>
        <mxCell id="GzUKn0U8WQ_5wW52G-VL-26" value="&lt;font style=&quot;font-size: 5px;&quot;&gt;&lt;b&gt;Object type : CSV files&lt;/b&gt;&lt;/font&gt;&lt;div&gt;&lt;font style=&quot;font-size: 5px;&quot;&gt;&lt;b&gt;Interface : files in folder&amp;nbsp;&lt;/b&gt;&lt;/font&gt;&lt;/div&gt;" style="text;html=1;align=center;verticalAlign=middle;whiteSpace=wrap;rounded=0;" vertex="1" parent="1">
          <mxGeometry x="27.5" y="410" width="60" height="30" as="geometry" />
        </mxCell>
        <mxCell id="GzUKn0U8WQ_5wW52G-VL-27" value="" style="html=1;verticalLabelPosition=bottom;align=center;labelBackgroundColor=#ffffff;verticalAlign=top;strokeWidth=2;strokeColor=#BD7000;shadow=0;dashed=0;shape=mxgraph.ios7.icons.data;fillColor=#f0a30a;fontColor=#000000;" vertex="1" parent="1">
          <mxGeometry x="235" y="264.35" width="50" height="70" as="geometry" />
        </mxCell>
        <mxCell id="GzUKn0U8WQ_5wW52G-VL-28" value="" style="html=1;verticalLabelPosition=bottom;align=center;labelBackgroundColor=#ffffff;verticalAlign=top;strokeWidth=2;strokeColor=#666666;shadow=0;dashed=0;shape=mxgraph.ios7.icons.data;fillColor=#f5f5f5;gradientColor=#b3b3b3;" vertex="1" parent="1">
          <mxGeometry x="425" y="264.35" width="50" height="70" as="geometry" />
        </mxCell>
        <mxCell id="GzUKn0U8WQ_5wW52G-VL-29" value="" style="html=1;verticalLabelPosition=bottom;align=center;labelBackgroundColor=#ffffff;verticalAlign=top;strokeWidth=2;strokeColor=#B09500;shadow=0;dashed=0;shape=mxgraph.ios7.icons.data;fillColor=#e3c800;fontColor=#000000;" vertex="1" parent="1">
          <mxGeometry x="610" y="270" width="50" height="70" as="geometry" />
        </mxCell>
        <mxCell id="GzUKn0U8WQ_5wW52G-VL-32" value="" style="html=1;shadow=0;dashed=0;align=center;verticalAlign=middle;shape=mxgraph.arrows2.arrow;dy=0.67;dx=20;notch=0;fillColor=#dae8fc;strokeColor=#6c8ebf;" vertex="1" parent="1">
          <mxGeometry x="110" y="320.76" width="110" height="10" as="geometry" />
        </mxCell>
        <mxCell id="GzUKn0U8WQ_5wW52G-VL-33" value="" style="html=1;shadow=0;dashed=0;align=center;verticalAlign=middle;shape=mxgraph.arrows2.arrow;dy=0.67;dx=20;notch=0;fillColor=#f5f5f5;fontColor=#333333;strokeColor=#666666;" vertex="1" parent="1">
          <mxGeometry x="300" y="320" width="110" height="10" as="geometry" />
        </mxCell>
        <mxCell id="GzUKn0U8WQ_5wW52G-VL-34" value="" style="html=1;shadow=0;dashed=0;align=center;verticalAlign=middle;shape=mxgraph.arrows2.arrow;dy=0.67;dx=20;notch=0;fillColor=#f5f5f5;fontColor=#333333;strokeColor=#666666;" vertex="1" parent="1">
          <mxGeometry x="490" y="320" width="100" height="10" as="geometry" />
        </mxCell>
        <mxCell id="GzUKn0U8WQ_5wW52G-VL-42" value="&lt;font style=&quot;font-size: 7px;&quot;&gt;&lt;b&gt;Raw Data&lt;/b&gt;&lt;/font&gt;" style="text;html=1;align=center;verticalAlign=middle;whiteSpace=wrap;rounded=0;" vertex="1" parent="1">
          <mxGeometry x="230" y="330.76" width="60" height="30" as="geometry" />
        </mxCell>
        <mxCell id="GzUKn0U8WQ_5wW52G-VL-44" value="&lt;font style=&quot;font-size: 6px;&quot;&gt;&lt;b&gt;Cleaned , Standarized Data&lt;/b&gt;&lt;/font&gt;" style="text;html=1;align=center;verticalAlign=middle;whiteSpace=wrap;rounded=0;" vertex="1" parent="1">
          <mxGeometry x="420" y="344.24" width="60" height="30" as="geometry" />
        </mxCell>
        <mxCell id="GzUKn0U8WQ_5wW52G-VL-45" value="&lt;span style=&quot;font-size: 6px;&quot;&gt;&lt;b&gt;Business Ready Data&lt;/b&gt;&lt;/span&gt;" style="text;html=1;align=center;verticalAlign=middle;whiteSpace=wrap;rounded=0;" vertex="1" parent="1">
          <mxGeometry x="610" y="344.24" width="60" height="30" as="geometry" />
        </mxCell>
        <mxCell id="GzUKn0U8WQ_5wW52G-VL-46" value="" style="endArrow=none;html=1;rounded=0;" edge="1" parent="1" source="GzUKn0U8WQ_5wW52G-VL-10">
          <mxGeometry width="50" height="50" relative="1" as="geometry">
            <mxPoint x="220" y="374.68" as="sourcePoint" />
            <mxPoint x="300" y="374.68" as="targetPoint" />
            <Array as="points">
              <mxPoint x="220" y="374.68" />
              <mxPoint x="280" y="374.68" />
              <mxPoint x="270" y="374.68" />
            </Array>
          </mxGeometry>
        </mxCell>
        <mxCell id="GzUKn0U8WQ_5wW52G-VL-47" value="" style="endArrow=none;html=1;rounded=0;" edge="1" parent="1">
          <mxGeometry width="50" height="50" relative="1" as="geometry">
            <mxPoint x="410" y="380" as="sourcePoint" />
            <mxPoint x="490" y="380" as="targetPoint" />
            <Array as="points">
              <mxPoint x="410" y="380" />
              <mxPoint x="470" y="380" />
              <mxPoint x="460" y="380" />
            </Array>
          </mxGeometry>
        </mxCell>
        <mxCell id="GzUKn0U8WQ_5wW52G-VL-48" value="" style="endArrow=none;html=1;rounded=0;" edge="1" parent="1">
          <mxGeometry width="50" height="50" relative="1" as="geometry">
            <mxPoint x="595" y="380" as="sourcePoint" />
            <mxPoint x="675" y="380" as="targetPoint" />
            <Array as="points">
              <mxPoint x="595" y="380" />
              <mxPoint x="655" y="380" />
              <mxPoint x="645" y="380" />
            </Array>
          </mxGeometry>
        </mxCell>
        <mxCell id="GzUKn0U8WQ_5wW52G-VL-49" value="&lt;font style=&quot;font-size: 5px;&quot;&gt;&lt;b&gt;Object type : Table&lt;/b&gt;&lt;/font&gt;&lt;div&gt;&lt;font style=&quot;font-size: 5px;&quot;&gt;&lt;b&gt;Load :&amp;nbsp;&lt;/b&gt;&lt;/font&gt;&lt;/div&gt;&lt;div&gt;&lt;ul&gt;&lt;li&gt;&lt;b style=&quot;font-size: 5px; background-color: transparent; color: light-dark(rgb(0, 0, 0), rgb(255, 255, 255));&quot;&gt;Batch processing&amp;nbsp;&amp;nbsp;&lt;/b&gt;&lt;/li&gt;&lt;li&gt;&lt;b style=&quot;font-size: 5px; background-color: transparent; color: light-dark(rgb(0, 0, 0), rgb(255, 255, 255));&quot;&gt;Full Load (Truncate &amp;amp; Insert )&lt;/b&gt;&lt;/li&gt;&lt;/ul&gt;&lt;/div&gt;" style="text;html=1;align=center;verticalAlign=middle;whiteSpace=wrap;rounded=0;" vertex="1" parent="1">
          <mxGeometry x="235" y="460" width="60" height="50" as="geometry" />
        </mxCell>
        <mxCell id="GzUKn0U8WQ_5wW52G-VL-54" value="" style="image;aspect=fixed;html=1;points=[];align=center;fontSize=12;image=img/lib/azure2/general/File.svg;" vertex="1" parent="1">
          <mxGeometry x="60" y="290" width="15" height="18.48" as="geometry" />
        </mxCell>
        <mxCell id="GzUKn0U8WQ_5wW52G-VL-56" value="&lt;font style=&quot;font-size: 10px;&quot;&gt;&lt;b&gt;CRM&lt;/b&gt;&lt;/font&gt;" style="text;html=1;align=center;verticalAlign=middle;whiteSpace=wrap;rounded=0;" vertex="1" parent="1">
          <mxGeometry x="27.5" y="314.35" width="60" height="5.65" as="geometry" />
        </mxCell>
        <mxCell id="GzUKn0U8WQ_5wW52G-VL-60" value="" style="endArrow=none;html=1;rounded=0;" edge="1" parent="1" target="GzUKn0U8WQ_5wW52G-VL-10">
          <mxGeometry width="50" height="50" relative="1" as="geometry">
            <mxPoint x="220" y="374.68" as="sourcePoint" />
            <mxPoint x="300" y="374.68" as="targetPoint" />
            <Array as="points" />
          </mxGeometry>
        </mxCell>
        <mxCell id="GzUKn0U8WQ_5wW52G-VL-10" value="Bronze Layer" style="text;html=1;align=center;verticalAlign=middle;whiteSpace=wrap;rounded=0;fillColor=none;strokeColor=#BD7000;fontColor=#000000;" vertex="1" parent="1">
          <mxGeometry x="215" y="215" width="100" height="355" as="geometry" />
        </mxCell>
        <mxCell id="GzUKn0U8WQ_5wW52G-VL-61" value="&lt;font style=&quot;font-size: 6px;&quot;&gt;No Transformations&lt;/font&gt;&lt;div&gt;&lt;font style=&quot;font-size: 6px;&quot;&gt;Data Model : None&amp;nbsp;&lt;/font&gt;&lt;/div&gt;" style="text;html=1;align=center;verticalAlign=middle;whiteSpace=wrap;rounded=0;" vertex="1" parent="1">
          <mxGeometry x="230" y="377.5" width="60" height="30" as="geometry" />
        </mxCell>
        <mxCell id="GzUKn0U8WQ_5wW52G-VL-62" value="&lt;font style=&quot;font-size: 6px;&quot;&gt;Object type : Tables&lt;/font&gt;&lt;div&gt;&lt;font style=&quot;font-size: 6px;&quot;&gt;Load : BAtch processing&amp;nbsp;&lt;/font&gt;&lt;/div&gt;&lt;div&gt;&lt;font style=&quot;font-size: 6px;&quot;&gt;Full Load&lt;/font&gt;&lt;/div&gt;&lt;div&gt;&lt;font style=&quot;font-size: 6px;&quot;&gt;Truncate &amp;amp; Insert&lt;/font&gt;&lt;/div&gt;&lt;div&gt;&lt;font style=&quot;font-size: 6px;&quot;&gt;&lt;br&gt;&lt;/font&gt;&lt;/div&gt;&lt;div&gt;&lt;font style=&quot;font-size: 6px;&quot;&gt;Transformations : Data cleansing&lt;/font&gt;&lt;/div&gt;&lt;div&gt;&lt;font style=&quot;font-size: 6px;&quot;&gt;Data Standarization&amp;nbsp;&lt;/font&gt;&lt;/div&gt;&lt;div&gt;&lt;font style=&quot;font-size: 6px;&quot;&gt;Data Normalization&lt;/font&gt;&lt;/div&gt;&lt;div&gt;&lt;font style=&quot;font-size: 6px;&quot;&gt;Derived Columns&lt;/font&gt;&lt;/div&gt;&lt;div&gt;&lt;font style=&quot;font-size: 6px;&quot;&gt;Data Enrichme&lt;/font&gt;nt&lt;/div&gt;" style="text;html=1;align=center;verticalAlign=middle;whiteSpace=wrap;rounded=0;" vertex="1" parent="1">
          <mxGeometry x="420" y="450" width="60" height="30" as="geometry" />
        </mxCell>
        <mxCell id="GzUKn0U8WQ_5wW52G-VL-63" value="&lt;font style=&quot;font-size: 7px;&quot;&gt;object type : views&lt;/font&gt;&lt;div&gt;&lt;font style=&quot;font-size: 7px;&quot;&gt;No Load&lt;/font&gt;&lt;/div&gt;&lt;div&gt;&lt;font style=&quot;font-size: 7px;&quot;&gt;Transformations : Data integrations&lt;/font&gt;&lt;/div&gt;&lt;div&gt;&lt;font style=&quot;font-size: 7px;&quot;&gt;Aggreations&lt;/font&gt;&lt;/div&gt;&lt;div&gt;&lt;font style=&quot;font-size: 7px;&quot;&gt;Business Logics&lt;/font&gt;&lt;/div&gt;&lt;div&gt;&lt;font style=&quot;font-size: 7px;&quot;&gt;&lt;br&gt;&lt;/font&gt;&lt;/div&gt;&lt;div&gt;&lt;font style=&quot;font-size: 7px;&quot;&gt;Data Model : Star Schema&amp;nbsp;&lt;/font&gt;&lt;/div&gt;&lt;div&gt;&lt;font style=&quot;font-size: 7px;&quot;&gt;Flat table&amp;nbsp;&lt;/font&gt;&lt;/div&gt;&lt;div&gt;&lt;font style=&quot;font-size: 7px;&quot;&gt;Aggregated Table&lt;/font&gt;&lt;/div&gt;" style="text;html=1;align=center;verticalAlign=middle;whiteSpace=wrap;rounded=0;" vertex="1" parent="1">
          <mxGeometry x="605" y="450" width="60" height="30" as="geometry" />
        </mxCell>
        <mxCell id="GzUKn0U8WQ_5wW52G-VL-65" value="" style="image;aspect=fixed;html=1;points=[];align=center;fontSize=12;image=img/lib/azure2/power_platform/PowerBI.svg;" vertex="1" parent="1">
          <mxGeometry x="830" y="190" width="30" height="40" as="geometry" />
        </mxCell>
        <mxCell id="GzUKn0U8WQ_5wW52G-VL-66" value="" style="sketch=0;outlineConnect=0;fontColor=#232F3E;gradientColor=none;fillColor=#7AA116;strokeColor=none;dashed=0;verticalLabelPosition=bottom;verticalAlign=top;align=center;html=1;fontSize=12;fontStyle=0;aspect=fixed;pointerEvents=1;shape=mxgraph.aws4.reported_state;" vertex="1" parent="1">
          <mxGeometry x="870" y="185.5" width="49" height="49" as="geometry" />
        </mxCell>
        <mxCell id="GzUKn0U8WQ_5wW52G-VL-67" value="&lt;font style=&quot;font-size: 20px;&quot;&gt;Power Bi &amp;amp; reporting&lt;/font&gt;" style="text;html=1;align=center;verticalAlign=middle;whiteSpace=wrap;rounded=0;" vertex="1" parent="1">
          <mxGeometry x="840" y="274.35" width="60" height="30" as="geometry" />
        </mxCell>
        <mxCell id="GzUKn0U8WQ_5wW52G-VL-69" value="" style="points=[];aspect=fixed;html=1;align=center;shadow=0;dashed=0;fillColor=#FF6A00;strokeColor=none;shape=mxgraph.alibaba_cloud.assettech;" vertex="1" parent="1">
          <mxGeometry x="856.8" y="344.24" width="43.199999999999996" height="41.699999999999996" as="geometry" />
        </mxCell>
        <mxCell id="GzUKn0U8WQ_5wW52G-VL-70" value="&lt;font style=&quot;font-size: 20px;&quot;&gt;Ad-Hoc SQL Queries&lt;/font&gt;" style="text;html=1;align=center;verticalAlign=middle;whiteSpace=wrap;rounded=0;" vertex="1" parent="1">
          <mxGeometry x="850" y="420" width="60" height="30" as="geometry" />
        </mxCell>
        <mxCell id="GzUKn0U8WQ_5wW52G-VL-71" value="" style="points=[];aspect=fixed;html=1;align=center;shadow=0;dashed=0;fillColor=#FF6A00;strokeColor=none;shape=mxgraph.alibaba_cloud.machine_learning;" vertex="1" parent="1">
          <mxGeometry x="856.8" y="480" width="49.8" height="50.099999999999994" as="geometry" />
        </mxCell>
        <mxCell id="GzUKn0U8WQ_5wW52G-VL-72" value="&lt;font style=&quot;font-size: 20px;&quot;&gt;Machine Learning&lt;/font&gt;" style="text;html=1;align=center;verticalAlign=middle;whiteSpace=wrap;rounded=0;" vertex="1" parent="1">
          <mxGeometry x="846.6" y="535" width="60" height="30" as="geometry" />
        </mxCell>
        <mxCell id="GzUKn0U8WQ_5wW52G-VL-73" value="" style="points=[];aspect=fixed;html=1;align=center;shadow=0;dashed=0;fillColor=#FF6A00;strokeColor=none;shape=mxgraph.alibaba_cloud.sqlserver;" vertex="1" parent="1">
          <mxGeometry x="200" y="130" width="17.39" height="24.1" as="geometry" />
        </mxCell>
      </root>
    </mxGraphModel>
  </diagram>
</mxfile>
